<?xml version="1.0" standalone="no"?>
<!DOCTYPE svg PUBLIC "-//W3C//DTD SVG 20010904//EN"
 "http://www.w3.org/TR/2001/REC-SVG-20010904/DTD/svg10.dtd">
<svg version="1.0" xmlns="http://www.w3.org/2000/svg"
 width="1097.000000pt" height="955.000000pt" viewBox="0 0 1097.000000 955.000000"
 preserveAspectRatio="xMidYMid meet">

<g transform="translate(0.000000,955.000000) scale(0.100000,-0.100000)"
fill="#000000" stroke="none">
<path d="M5483 8338 c-13 -14 -24 -44 -28 -78 -10 -76 -32 -114 -130 -226 -47
-53 -96 -120 -109 -149 -48 -101 -51 -220 -8 -317 10 -24 60 -88 110 -143 113
-124 137 -167 137 -255 0 -81 -22 -121 -130 -241 -43 -48 -90 -112 -108 -149
-29 -59 -32 -73 -32 -160 0 -87 3 -101 32 -160 19 -38 67 -103 114 -155 95
-105 129 -168 129 -240 0 -70 -28 -123 -107 -208 -122 -129 -173 -222 -173
-318 0 -40 5 -55 25 -74 29 -30 45 -31 77 -5 19 14 29 36 38 82 16 86 27 103
127 210 118 126 148 190 148 313 0 122 -30 185 -149 315 -104 115 -126 156
-126 236 1 80 21 120 125 239 140 159 179 276 140 411 -24 84 -54 131 -152
236 -47 50 -92 107 -99 125 -8 18 -14 61 -14 95 0 80 27 129 136 248 89 98
131 178 140 267 6 59 6 63 -24 92 -36 37 -61 39 -89 9z"/>
<path d="M6091 7243 c-14 -12 -25 -39 -32 -78 -15 -81 -34 -116 -124 -220
-123 -143 -167 -259 -147 -384 16 -93 52 -158 142 -255 103 -111 124 -152 124
-236 -1 -85 -21 -124 -125 -236 -95 -103 -138 -183 -146 -274 -4 -45 -2 -65
11 -84 38 -60 97 -54 115 11 6 21 11 49 11 64 0 46 51 128 137 220 50 53 95
112 109 143 33 73 41 176 19 252 -22 78 -44 111 -138 214 -120 131 -144 195
-113 302 16 56 49 106 149 224 32 38 69 93 83 122 47 100 42 196 -12 221 -33
15 -38 14 -63 -6z"/>
<path d="M4889 7228 c-7 -13 -18 -47 -25 -76 -16 -69 -48 -120 -135 -217 -129
-144 -174 -284 -134 -421 22 -77 40 -105 136 -211 105 -116 134 -173 126 -254
-6 -71 -28 -108 -127 -214 -76 -83 -115 -153 -130 -237 -18 -95 9 -158 68
-158 32 0 51 32 66 113 8 42 20 85 26 97 6 11 53 68 105 127 114 129 139 188
133 307 -5 99 -44 175 -148 291 -108 119 -125 151 -124 240 0 90 26 140 134
260 97 109 133 176 138 260 3 50 0 65 -18 88 -28 35 -74 37 -91 5z"/>
<path d="M8170 5351 c-100 -15 -184 -41 -280 -88 -81 -40 -109 -61 -185 -138
-93 -94 -140 -161 -182 -265 -50 -126 -57 -182 -57 -502 -1 -286 0 -298 20
-325 26 -35 63 -40 95 -14 l24 19 6 329 c7 359 10 381 71 503 49 97 171 216
274 268 122 61 188 76 334 76 109 0 134 -4 198 -26 148 -53 261 -143 348 -279
89 -137 136 -287 154 -492 32 -366 -90 -691 -348 -927 -315 -288 -724 -447
-1226 -476 -101 -6 -112 -8 -136 -33 -15 -14 -35 -51 -45 -81 -56 -174 -173
-335 -326 -450 -223 -167 -509 -254 -950 -291 -207 -17 -1218 -6 -1373 15
-262 34 -420 78 -582 159 -329 166 -540 463 -623 882 -33 166 -41 386 -41
1147 l0 728 1955 0 1955 0 0 -899 c0 -894 0 -898 21 -925 26 -33 68 -34 97 -3
l22 23 0 956 0 955 -21 19 c-21 19 -71 19 -2072 22 -2290 2 -2090 9 -2102 -70
-3 -24 -2 -434 4 -913 11 -934 11 -947 67 -1170 136 -543 516 -901 1079 -1014
294 -59 553 -75 1130 -68 630 8 854 35 1145 139 333 120 558 311 693 588 33
69 65 128 71 132 5 4 44 9 86 13 297 24 574 94 798 200 405 194 674 460 793
786 57 155 73 254 73 449 1 187 -10 264 -61 424 -118 375 -397 605 -753 621
-52 2 -120 0 -150 -4z"/>
<path d="M1313 1878 c-33 -16 -44 -58 -26 -96 19 -39 162 -185 255 -258 439
-351 1216 -623 2193 -768 798 -118 1823 -150 2640 -80 1300 109 2305 433 2945
947 176 141 211 196 160 247 -37 37 -68 26 -150 -51 -532 -498 -1544 -859
-2740 -978 -446 -45 -628 -53 -1140 -53 -552 -1 -852 14 -1315 63 -816 86
-1567 274 -2062 515 -133 65 -300 165 -403 241 -74 55 -150 122 -150 133 0 3
1523 5 3384 5 l3384 0 26 24 c31 29 33 60 7 92 l-19 24 -3484 2 c-2444 1
-3490 -1 -3505 -9z"/>
</g>
</svg>
