<?xml version="1.0" standalone="no"?>
<!DOCTYPE svg PUBLIC "-//W3C//DTD SVG 20010904//EN"
 "http://www.w3.org/TR/2001/REC-SVG-20010904/DTD/svg10.dtd">
<svg version="1.0" xmlns="http://www.w3.org/2000/svg"
 width="356.000000pt" height="278.000000pt" viewBox="0 0 356.000000 278.000000"
 preserveAspectRatio="xMidYMid meet">

<g transform="translate(0.000000,278.000000) scale(0.100000,-0.100000)"
fill="#000000" stroke="none">
<path d="M1649 2552 c-68 -35 -104 -95 -87 -143 6 -18 7 -34 2 -39 -5 -5 -46
-18 -91 -29 -209 -51 -357 -142 -414 -252 -13 -26 -31 -44 -50 -51 -16 -5 -29
-14 -29 -19 0 -5 -31 -42 -68 -81 -79 -85 -124 -146 -176 -240 -21 -38 -40
-68 -43 -68 -3 0 -21 14 -41 31 -61 54 -116 73 -212 74 -74 0 -93 -4 -143 -28
-60 -30 -103 -80 -125 -146 -16 -46 -15 -154 2 -218 48 -182 228 -426 380
-517 54 -32 63 -43 101 -120 97 -192 257 -378 414 -481 56 -37 94 -68 97 -82
9 -34 157 -91 296 -114 42 -7 75 -17 72 -21 -3 -5 90 -7 208 -5 279 5 449 33
540 89 20 13 95 79 167 146 98 93 147 148 196 222 l65 97 55 7 c121 14 262 92
328 183 67 92 96 167 173 448 60 217 112 309 222 387 l72 52 0 125 0 124 -47
-7 c-70 -9 -161 -58 -225 -120 -54 -53 -85 -98 -204 -301 -55 -94 -195 -258
-208 -244 -3 3 -15 48 -25 101 -67 325 -166 518 -326 639 -36 27 -55 49 -55
63 -1 28 -21 53 -53 65 -14 6 -33 26 -43 46 -35 75 -166 157 -353 220 -53 18
-119 36 -148 40 l-52 7 6 47 c7 61 -16 107 -62 127 -47 19 -55 18 -116 -14z
m344 -221 c108 -38 177 -68 177 -79 0 -15 -163 -73 -290 -104 -81 -19 -394
-17 -485 4 -125 28 -186 49 -182 61 6 19 168 84 279 113 l101 26 31 -35 c17
-20 40 -37 51 -38 61 -5 74 1 106 47 l32 46 49 -6 c27 -4 86 -20 131 -35z
m308 -158 c32 -31 59 -62 59 -68 0 -17 -32 -37 -113 -69 -105 -42 -226 -64
-412 -76 -93 -6 -202 -14 -241 -17 -76 -5 -235 15 -355 47 -78 20 -159 64
-159 86 0 19 78 104 96 104 8 0 53 -11 101 -26 262 -76 547 -69 794 21 39 14
82 32 97 40 48 25 70 18 133 -42z m139 -132 c18 -35 12 -76 -17 -103 -57 -52
-118 -68 -398 -104 -264 -33 -604 -38 -749 -11 -171 32 -272 77 -290 130 -8
22 -6 31 8 45 16 16 18 16 38 -12 43 -58 213 -110 398 -121 139 -8 562 10 672
30 171 30 288 87 288 142 0 29 35 32 50 4z m95 -153 c65 -72 149 -196 193
-283 66 -135 81 -226 84 -515 l3 -215 -33 -85 c-76 -196 -159 -328 -281 -450
-70 -70 -104 -95 -186 -137 -185 -95 -352 -133 -576 -133 -289 1 -537 78 -719
225 -120 96 -287 313 -361 470 -55 115 -73 218 -66 379 6 166 23 225 125 438
86 179 137 261 201 323 l42 40 22 -27 c82 -98 394 -152 749 -129 195 13 517
54 600 78 35 9 73 29 95 49 21 18 41 33 45 34 3 0 32 -28 63 -62z m-1974 -251
c28 -15 52 -38 66 -63 l22 -40 -46 -135 c-42 -123 -46 -142 -47 -234 -1 -55 3
-131 7 -168 l8 -68 -58 43 c-74 56 -173 181 -226 288 -41 83 -42 87 -42 187
l0 103 35 35 c70 70 200 94 281 52z"/>
<path d="M865 1580 c-18 -20 -75 -173 -75 -202 0 -38 20 -15 36 40 9 31 29 83
45 114 29 58 26 83 -6 48z"/>
<path d="M880 1350 c0 -71 15 -80 24 -14 9 66 8 74 -9 74 -12 0 -15 -13 -15
-60z"/>
<path d="M2547 650 c-3 -8 -13 -44 -22 -80 -19 -75 -64 -169 -106 -222 -16
-20 -29 -45 -29 -54 0 -34 58 36 104 125 45 89 71 178 64 221 -3 18 -6 21 -11
10z"/>
<path d="M2320 394 c-6 -14 -10 -28 -10 -31 0 -3 -20 -34 -45 -70 -48 -69 -50
-73 -35 -73 28 0 120 143 120 185 0 24 -20 17 -30 -11z"/>
</g>
</svg>
