<?xml version="1.0" standalone="no"?>
<!DOCTYPE svg PUBLIC "-//W3C//DTD SVG 20010904//EN"
 "http://www.w3.org/TR/2001/REC-SVG-20010904/DTD/svg10.dtd">
<svg version="1.0" xmlns="http://www.w3.org/2000/svg"
 width="943.000000pt" height="1110.000000pt" viewBox="0 0 943.000000 1110.000000"
 preserveAspectRatio="xMidYMid meet">

<g transform="translate(0.000000,1110.000000) scale(0.100000,-0.100000)"
fill="#000000" stroke="none">
<path d="M4140 10379 c-215 -8 -444 -29 -650 -60 -166 -25 -237 -41 -411 -90
-74 -21 -191 -50 -260 -64 -153 -31 -367 -93 -518 -152 -270 -104 -664 -345
-821 -503 -92 -92 -129 -153 -156 -259 -15 -59 -16 -265 -10 -2465 4 -1321 11
-2477 15 -2571 5 -93 13 -523 19 -955 14 -957 29 -1220 92 -1570 13 -72 19
-132 15 -161 -6 -43 -4 -48 25 -72 17 -15 36 -27 41 -27 6 0 49 -23 96 -50
208 -123 298 -161 623 -260 113 -35 239 -78 280 -97 41 -19 112 -45 158 -58
121 -36 906 -182 1175 -220 196 -27 623 -18 872 19 55 8 156 22 225 30 200 25
340 53 449 91 244 85 590 257 725 360 17 13 60 37 96 53 99 45 107 58 130 203
11 68 35 214 54 324 34 196 94 637 116 845 6 57 13 107 15 111 3 3 11 96 20
205 26 335 75 846 86 904 16 78 46 131 138 246 142 179 306 284 711 459 209
90 493 226 591 283 343 199 670 464 796 644 130 186 233 440 285 703 31 155
30 361 -1 499 -25 111 -71 247 -106 316 -74 145 -268 364 -403 453 -166 111
-379 189 -599 218 -101 13 -253 7 -405 -17 -237 -36 -360 -85 -519 -203 -53
-39 -103 -71 -109 -71 -15 0 -10 93 20 323 49 387 70 715 70 1117 1 168 5 325
9 349 16 80 -29 200 -117 314 -44 58 -205 203 -332 298 -104 79 -305 172 -581
270 -480 172 -600 205 -885 249 -333 51 -553 59 -1064 39z m830 -109 c431 -47
513 -67 970 -235 316 -116 412 -158 547 -237 267 -159 446 -333 506 -496 20
-53 21 -81 25 -399 3 -259 0 -391 -13 -540 -34 -411 -83 -867 -110 -1018 -19
-104 -50 -319 -70 -471 -21 -171 -52 -235 -185 -380 -130 -143 -208 -276 -310
-533 -32 -80 -83 -209 -114 -286 -103 -256 -166 -481 -202 -725 -18 -123 -15
-320 6 -490 12 -93 28 -126 67 -141 38 -14 78 3 158 67 139 112 284 192 322
177 16 -6 16 -34 3 -263 -5 -96 -15 -263 -20 -370 -6 -107 -19 -271 -30 -365
-11 -93 -28 -267 -39 -385 -11 -118 -26 -230 -32 -249 -46 -131 -936 -524
-1349 -595 -289 -50 -527 -53 -1235 -16 -447 23 -884 102 -1295 233 -469 150
-939 374 -1095 522 l-32 30 -7 430 c-3 237 -9 513 -12 615 l-6 185 23 21 c55
49 297 191 474 278 222 109 298 160 441 298 118 114 166 181 252 353 142 285
205 462 276 781 45 206 111 461 139 542 27 81 20 96 -53 100 -134 8 -522 -72
-704 -144 -321 -128 -531 -287 -775 -587 -58 -71 -65 -77 -79 -63 -14 14 -16
179 -16 1628 -1 1547 0 1615 18 1668 38 112 130 250 167 250 27 0 24 -17 -13
-90 -46 -88 -46 -162 0 -280 53 -133 81 -178 142 -225 190 -146 442 -243 863
-330 95 -20 240 -51 322 -70 530 -119 969 -165 1410 -145 207 9 421 26 455 35
8 3 143 11 300 19 157 9 314 18 350 21 139 13 371 57 605 116 287 73 544 209
704 373 82 85 103 127 125 246 19 99 9 173 -29 217 l-23 27 -5 -29 c-3 -17
-11 -69 -17 -118 -8 -54 -19 -96 -30 -109 l-17 -22 -66 43 c-37 24 -115 65
-174 91 -114 51 -477 189 -628 239 -145 48 -391 82 -920 126 -104 9 -248 23
-320 30 -209 24 -292 20 -765 -34 -96 -11 -247 -27 -336 -35 -314 -30 -597
-81 -974 -176 -315 -79 -435 -126 -657 -261 -84 -51 -141 -79 -155 -77 -16 2
-32 21 -55 66 -43 84 -44 134 -2 212 34 64 35 103 4 108 -32 6 -38 18 -25 56
39 118 487 380 859 502 57 19 210 61 340 94 130 33 279 71 331 85 131 36 467
91 635 105 398 32 854 32 1155 0z m-375 -725 c83 -8 229 -22 325 -30 609 -54
724 -73 1005 -169 297 -101 471 -176 592 -254 74 -49 143 -110 143 -127 0 -32
-175 -157 -329 -234 -275 -139 -681 -230 -1111 -251 -107 -5 -269 -16 -360
-24 -437 -42 -511 -46 -757 -46 -368 0 -620 27 -1023 111 -107 22 -294 60
-415 85 -425 86 -597 144 -777 260 -80 51 -86 73 -35 121 169 161 496 281
1077 397 273 55 335 64 855 121 553 60 587 62 810 40z m3534 -1931 c297 -44
531 -187 725 -444 163 -217 236 -429 236 -688 0 -303 -114 -660 -292 -919
-121 -175 -397 -405 -708 -590 -153 -90 -253 -139 -480 -233 -96 -40 -229 -94
-295 -122 -246 -102 -441 -223 -559 -347 -64 -68 -86 -72 -86 -18 0 23 11 48
34 78 37 48 186 187 263 245 54 42 63 52 63 77 0 44 -93 1 -237 -109 -79 -60
-106 -65 -111 -21 -5 44 41 112 160 233 59 62 108 119 108 128 0 33 -47 15
-127 -49 -45 -36 -86 -65 -92 -65 -23 0 -12 76 17 116 48 65 155 159 250 217
104 65 339 184 497 252 157 68 358 170 440 223 358 231 575 581 563 908 -3 93
-6 107 -41 177 -53 108 -152 199 -290 265 -141 69 -193 83 -329 89 -138 7
-231 -6 -368 -49 -141 -44 -362 -157 -458 -234 -82 -65 -112 -78 -112 -46 0
34 43 88 147 188 85 81 104 105 101 125 -5 39 -29 33 -101 -27 -86 -72 -111
-67 -87 15 12 43 50 83 120 128 71 45 120 92 120 115 0 34 -29 31 -93 -11 -75
-48 -107 -53 -107 -16 0 45 37 100 107 162 173 152 312 217 538 248 129 18
358 18 484 -1z m-166 -693 c96 -25 183 -68 269 -133 82 -63 120 -108 160 -194
54 -115 40 -244 -47 -431 -90 -193 -215 -343 -404 -484 -143 -106 -250 -163
-491 -259 -344 -138 -467 -201 -617 -317 -45 -35 -88 -63 -97 -63 -25 0 -28
35 -12 167 9 71 23 211 31 313 22 259 78 778 91 845 10 52 55 117 147 212 165
171 385 284 663 343 117 24 213 25 307 1z m-5065 -313 c17 -17 15 -134 -3
-195 -30 -102 -57 -116 -323 -168 -179 -36 -188 -31 -106 56 79 82 160 139
288 200 103 49 123 69 68 69 -45 0 -58 15 -31 34 27 19 90 21 107 4z m-268
-44 c0 -9 -39 -53 -87 -98 -326 -303 -594 -601 -907 -1011 -113 -148 -197
-245 -211 -245 -23 0 -30 63 -29 250 0 139 4 184 17 219 9 24 61 107 114 185
128 185 292 352 447 455 206 137 483 249 639 260 10 0 17 -6 17 -15z m4120
-168 c0 -35 -18 -220 -40 -410 -44 -388 -32 -346 -151 -528 -78 -120 -157
-277 -223 -448 -73 -185 -175 -417 -196 -443 -9 -11 -22 -17 -28 -13 -36 22
-41 310 -7 486 39 203 109 429 231 747 112 293 220 494 331 613 72 78 83 78
83 -4z m-3978 -217 c28 -7 40 -17 44 -35 12 -46 -28 -143 -66 -164 -38 -20
-542 -120 -606 -120 -70 0 -65 47 13 126 69 71 112 101 175 123 57 20 277 68
338 74 19 2 42 4 50 5 8 1 32 -3 52 -9z m-54 -358 c4 -43 -21 -111 -53 -141
-22 -20 -58 -28 -327 -66 -461 -65 -478 -66 -478 -22 0 31 45 92 91 124 88 61
489 144 679 140 l85 -1 3 -34z m-130 -262 c45 -15 49 -41 15 -107 -40 -80 -58
-89 -193 -102 -237 -22 -578 -62 -650 -76 -175 -33 -193 -6 -78 119 61 66 65
69 128 78 228 36 672 97 706 98 23 1 55 -4 72 -10z m4043 -206 c23 -62 -23
-153 -78 -153 -31 0 -37 18 -19 61 15 35 72 119 81 119 3 0 10 -12 16 -27z
m-4155 -105 c16 -16 16 -20 0 -62 -9 -24 -35 -65 -57 -90 -39 -44 -43 -46 -97
-46 -64 0 -229 -28 -559 -95 -264 -53 -315 -56 -339 -20 -14 22 -15 32 -5 64
17 57 116 146 184 166 66 19 353 70 472 84 148 18 156 19 272 17 91 -1 116 -4
129 -18z m4146 -195 c7 -60 -8 -125 -33 -144 -26 -20 -92 -37 -176 -46 -69 -8
-74 7 -35 91 38 81 58 98 130 112 98 19 110 18 114 -13z m-4418 -99 c24 -9 19
-27 -16 -61 -66 -61 -218 -148 -368 -210 -101 -42 -190 -86 -285 -142 -75 -44
-111 -51 -118 -23 -3 9 -8 59 -12 110 -8 113 3 153 48 176 40 20 174 53 432
105 177 36 217 43 287 49 9 1 23 -1 32 -4z m4364 -190 c4 -30 -117 -130 -231
-189 -103 -55 -122 -54 -114 6 10 75 51 112 193 175 92 40 147 43 152 8z
m-5059 -1854 c10 -5 26 -28 35 -50 14 -35 15 -72 10 -273 -5 -181 -2 -304 15
-557 11 -179 23 -345 27 -370 3 -25 0 -59 -6 -74 l-11 -30 -20 21 c-22 22 -52
194 -84 488 -18 164 -42 787 -32 828 8 29 33 35 66 17z m256 -124 c92 -43 89
-35 80 -279 -4 -116 -9 -408 -10 -649 -2 -240 -6 -441 -9 -447 -21 -34 -76 8
-99 74 -21 60 -54 259 -74 445 -23 219 -26 812 -4 853 18 34 49 35 116 3z
m4668 -129 c-4 -144 -136 -1036 -173 -1169 -10 -34 -50 -78 -71 -78 -5 0 -16
15 -25 32 -15 30 -16 57 -5 323 18 444 41 833 50 858 5 12 18 30 29 40 36 33
147 87 172 85 25 -3 25 -4 23 -91z m-4348 -21 c76 -45 75 -39 75 -508 1 -227
5 -495 10 -595 5 -117 5 -196 -1 -218 -30 -108 -187 -43 -232 95 -31 96 -42
380 -28 700 22 487 26 532 50 551 25 21 59 14 126 -25z m4025 -71 c15 -18 12
-127 -21 -675 -21 -356 -40 -544 -59 -580 -13 -24 -67 -53 -85 -46 -35 13 -44
51 -55 231 -9 166 -30 418 -65 789 -8 88 -10 158 -5 171 9 23 52 47 175 99 70
29 98 32 115 11z m-3736 -36 c46 -17 95 -41 108 -54 l24 -24 2 -608 c3 -607 3
-609 -18 -636 -28 -35 -87 -37 -150 -4 -69 35 -80 58 -91 183 -15 178 -28
1116 -16 1139 22 43 32 44 141 4z m403 -120 c105 -33 106 -35 100 -208 -2 -80
-10 -243 -16 -361 -6 -118 -15 -331 -20 -473 -11 -290 -15 -308 -74 -306 -50
1 -129 33 -149 60 -14 19 -22 54 -29 140 -12 146 -24 1053 -15 1102 4 21 16
47 28 59 23 23 67 20 175 -13z m2949 -10 c3 -5 14 -100 25 -212 10 -111 28
-301 40 -422 14 -151 20 -270 17 -381 -3 -154 -4 -162 -29 -200 -31 -46 -130
-104 -178 -104 -55 0 -59 16 -64 305 -3 195 -12 342 -37 587 -32 309 -32 328
-17 352 39 59 218 114 243 75z m-2584 -70 c21 -5 50 -20 65 -34 l28 -23 -1
-229 c-1 -125 -9 -304 -17 -398 -9 -93 -21 -264 -27 -380 -12 -219 -20 -259
-53 -276 -38 -21 -184 15 -213 52 -6 8 -14 26 -18 40 -7 32 20 839 34 989 5
58 9 135 10 172 0 60 3 69 27 87 27 22 76 22 165 0z m2196 -40 c48 -17 49 -18
89 -384 24 -220 28 -286 27 -552 -1 -339 0 -335 -75 -374 -58 -29 -171 -51
-202 -40 -43 17 -48 54 -31 234 18 183 15 639 -7 895 -13 167 -9 183 55 206
75 27 101 30 144 15z m-1817 -20 c26 -6 57 -21 70 -35 l23 -24 -18 -238 c-9
-130 -24 -311 -32 -402 -7 -91 -21 -264 -29 -384 -9 -120 -20 -228 -26 -238
-16 -30 -52 -39 -116 -27 -70 13 -109 32 -124 61 -14 27 -7 306 16 591 8 103
19 296 25 430 l10 242 26 23 c29 25 65 25 175 1z m398 -32 c27 -8 52 -22 64
-39 l20 -27 -22 -238 c-12 -131 -31 -330 -42 -443 -10 -113 -25 -289 -33 -392
-15 -205 -23 -231 -75 -243 -34 -7 -144 11 -181 30 -52 27 -53 34 -41 173 18
201 50 614 70 896 17 246 20 261 41 278 26 21 128 24 199 5z m1093 -7 c20 -6
39 -18 42 -28 14 -51 28 -480 23 -747 -5 -318 -20 -456 -55 -505 -28 -38 -89
-64 -164 -68 -62 -4 -67 -3 -83 22 -21 32 -21 27 -17 738 l2 527 24 27 c17 20
36 30 72 35 76 10 116 10 156 -1z m-705 -23 c13 -6 26 -21 30 -35 8 -34 -5
-949 -16 -1062 -14 -150 -31 -229 -55 -256 -18 -21 -32 -26 -96 -31 -107 -8
-157 8 -177 55 -21 50 -14 217 32 712 58 637 56 622 107 633 33 7 147 -3 175
-16z m350 -10 c11 -11 20 -43 24 -89 19 -186 1 -1143 -22 -1200 -16 -41 -81
-68 -160 -68 -90 0 -104 12 -102 87 1 32 6 207 12 388 6 182 11 443 11 581 0
239 1 253 21 278 11 14 35 30 52 35 48 15 144 8 164 -12z"/>
<path d="M2883 9954 c-18 -28 -12 -48 19 -68 23 -14 68 18 68 47 0 51 -58 65
-87 21z"/>
<path d="M5907 9923 c-15 -14 -6 -43 17 -58 28 -18 107 -17 113 2 2 6 -16 23
-40 37 -43 25 -77 33 -90 19z"/>
<path d="M6120 9818 c0 -26 43 -56 155 -104 172 -75 269 -137 362 -231 45 -46
89 -83 96 -83 26 0 27 43 3 97 -27 57 -93 115 -219 190 -158 95 -397 174 -397
131z"/>
<path d="M2275 9771 c-131 -45 -260 -109 -310 -152 -29 -26 -35 -38 -33 -63 4
-45 28 -44 99 5 55 37 152 86 317 159 55 25 78 50 68 76 -7 19 -15 18 -141
-25z"/>
<path d="M3567 6330 c-134 -42 -249 -166 -368 -394 -106 -205 -143 -327 -193
-651 -38 -239 -73 -401 -105 -483 -25 -64 -89 -162 -106 -162 -8 0 -14 31 -19
98 -4 53 -13 127 -21 163 -15 74 -58 167 -81 176 -23 9 -61 -13 -77 -44 -30
-59 -29 -98 2 -190 17 -49 38 -131 46 -183 29 -170 29 -173 6 -202 -29 -36
-126 -99 -186 -120 -58 -19 -67 -34 -30 -48 35 -13 131 10 195 47 70 41 175
148 232 237 109 169 159 326 218 676 50 301 92 443 188 635 55 112 114 195
184 261 73 70 128 96 210 102 59 4 75 1 123 -22 35 -17 61 -38 70 -56 19 -37
19 -107 1 -151 -33 -79 -102 -104 -120 -44 -20 69 -25 75 -56 75 -62 0 -96
-69 -64 -129 57 -106 193 -108 284 -5 100 114 96 288 -8 374 -72 60 -211 77
-325 40z"/>
<path d="M5785 6305 c-82 -29 -147 -138 -168 -284 -11 -76 -3 -177 28 -341 29
-156 39 -321 27 -437 -19 -168 -70 -333 -105 -333 -8 0 -26 32 -43 77 -47 124
-118 178 -158 121 -28 -40 -19 -88 39 -207 68 -139 70 -168 18 -272 -28 -58
-57 -94 -130 -166 -52 -51 -92 -97 -88 -103 9 -15 52 -12 87 6 83 43 164 147
282 361 98 178 133 259 160 370 46 187 44 288 -15 590 -40 209 -39 338 4 426
36 72 83 107 146 107 37 0 49 -5 76 -34 76 -81 70 -260 -11 -313 -35 -23 -40
-10 -20 48 17 46 17 52 3 66 -13 14 -18 13 -46 -3 -89 -52 -69 -184 30 -200
41 -7 91 24 126 74 46 69 55 230 18 318 -50 119 -148 168 -260 129z"/>
<path d="M5115 6150 c-38 -16 -144 -45 -235 -65 -231 -52 -401 -115 -577 -215
-446 -251 -800 -744 -973 -1354 -61 -217 -72 -273 -74 -376 -2 -148 29 -178
132 -126 64 32 161 62 257 80 113 21 130 23 320 45 288 34 460 74 553 128 72
43 352 315 396 385 85 138 173 358 240 600 25 90 45 249 61 501 14 211 27 334
41 378 6 22 -22 49 -49 48 -12 -1 -53 -14 -92 -29z m-115 -160 c0 -12 -34 -46
-97 -96 -54 -43 -157 -130 -229 -193 -72 -64 -211 -186 -309 -271 -184 -159
-193 -169 -462 -516 -158 -203 -304 -402 -417 -567 -59 -86 -111 -155 -117
-152 -19 13 -9 140 21 255 47 179 87 281 181 465 197 386 302 528 518 701 208
167 326 237 536 317 136 52 234 75 318 76 50 1 57 -1 57 -19z m121 -72 c15
-27 7 -284 -9 -315 -6 -11 -19 -23 -28 -27 -9 -3 -103 -9 -209 -13 -209 -7
-225 -3 -189 43 35 44 386 334 405 334 10 0 24 -10 30 -22z m-72 -438 c19 -5
38 -15 43 -22 22 -36 -9 -170 -43 -189 -31 -16 -719 -1 -719 16 0 39 136 148
214 170 100 29 433 46 505 25z m-175 -290 c86 -10 124 -22 138 -44 14 -21 8
-71 -16 -123 -22 -45 -30 -53 -66 -63 -22 -6 -172 -15 -333 -20 -553 -18 -574
-16 -548 48 15 37 122 142 171 167 19 11 60 24 90 31 69 15 441 18 564 4z
m-60 -326 c60 -6 86 -19 86 -42 0 -9 -17 -48 -38 -87 -50 -92 -90 -115 -207
-115 -44 0 -170 -5 -280 -11 -140 -8 -250 -8 -366 -1 -166 10 -209 20 -209 48
0 39 79 143 130 169 77 40 641 65 884 39z m-196 -337 c37 -20 38 -22 13 -63
-27 -44 -96 -98 -171 -133 -58 -28 -75 -31 -156 -31 -50 0 -139 7 -199 15 -60
9 -170 20 -246 25 -137 9 -192 22 -218 53 -22 27 15 86 75 117 48 25 54 25
344 31 420 9 518 6 558 -14z m-872 -277 c65 -11 122 -24 127 -29 26 -26 -322
-76 -377 -55 -26 10 -19 50 15 78 38 32 75 33 235 6z"/>
<path d="M7403 7149 c-48 -24 -65 -56 -39 -75 19 -13 51 -7 102 19 45 23 59
43 44 62 -17 21 -57 19 -107 -6z"/>
<path d="M8642 6483 c-5 -16 -19 -75 -30 -133 -23 -124 -90 -298 -159 -412
-64 -106 -139 -188 -235 -255 -44 -31 -86 -67 -95 -82 -9 -14 -27 -43 -41 -64
-18 -26 -22 -41 -15 -48 14 -14 38 -1 117 59 175 134 325 318 406 494 59 131
112 378 96 444 -8 32 -31 31 -44 -3z"/>
<path d="M7333 4920 c-44 -26 -67 -71 -49 -95 11 -15 17 -16 50 -5 20 6 52 27
72 45 30 29 34 37 24 54 -14 27 -55 27 -97 1z"/>
</g>
</svg>
