<?xml version="1.0" standalone="no"?>
<!DOCTYPE svg PUBLIC "-//W3C//DTD SVG 20010904//EN"
 "http://www.w3.org/TR/2001/REC-SVG-20010904/DTD/svg10.dtd">
<svg version="1.0" xmlns="http://www.w3.org/2000/svg"
 width="1024.000000pt" height="628.000000pt" viewBox="0 0 1024.000000 628.000000"
 preserveAspectRatio="xMidYMid meet">

<g transform="translate(0.000000,628.000000) scale(0.100000,-0.100000)"
fill="#000000" stroke="none">
<path d="M3893 5581 c-133 -63 -210 -184 -183 -288 6 -25 17 -58 25 -72 24
-47 115 -130 233 -214 131 -93 219 -175 245 -229 26 -55 22 -134 -10 -198 -29
-58 -124 -165 -218 -243 -73 -61 -52 -56 51 14 206 139 302 316 239 439 -44
88 -85 121 -350 290 -147 93 -205 165 -205 255 0 86 76 184 185 239 30 15 55
29 55 32 0 6 -1 6 -67 -25z"/>
<path d="M6349 5576 c100 -55 149 -110 177 -199 11 -36 13 -38 13 -14 2 86
-117 212 -229 241 -14 4 4 -9 39 -28z"/>
<path d="M6865 5288 c137 -105 179 -190 140 -284 -34 -83 -75 -117 -354 -295
-154 -98 -218 -180 -228 -290 -13 -143 82 -266 286 -368 45 -23 85 -40 87 -38
3 2 -26 24 -63 48 -92 59 -189 158 -219 222 -32 69 -33 153 -2 216 30 64 115
144 249 235 137 94 212 164 246 231 33 64 35 134 6 190 -25 47 -96 116 -144
140 l-34 16 30 -23z"/>
<path d="M6504 5258 c-10 -24 -24 -49 -31 -56 -7 -7 -13 -17 -13 -22 0 -4 -9
-10 -20 -13 -11 -3 -19 -9 -18 -14 2 -4 -1 -10 -7 -11 -5 -2 -29 -19 -52 -38
-23 -19 -45 -34 -49 -34 -4 0 -22 -11 -40 -25 -18 -14 -37 -25 -42 -25 -19 0
-151 -101 -194 -149 -117 -130 -100 -267 51 -418 66 -66 161 -141 161 -128 0
4 -37 47 -82 95 -160 169 -186 291 -90 413 44 55 104 107 236 202 53 39 94 75
91 82 -2 7 2 10 9 7 16 -6 67 58 95 120 11 27 20 51 18 53 -2 2 -12 -16 -23
-39z"/>
<path d="M3319 5243 c-13 -16 -12 -17 4 -4 9 7 17 15 17 17 0 8 -8 3 -21 -13z"/>
<path d="M2798 5183 c7 -3 16 -2 19 1 4 3 -2 6 -13 5 -11 0 -14 -3 -6 -6z"/>
<path d="M3260 5169 c-7 -11 -10 -23 -7 -25 2 -2 9 7 15 21 14 30 7 33 -8 4z"/>
<path d="M2883 5156 c146 -62 227 -150 227 -245 0 -70 -42 -136 -160 -253
-130 -128 -154 -168 -154 -258 0 -97 49 -172 164 -250 79 -53 113 -68 65 -29
-110 91 -175 189 -175 264 0 61 48 146 141 250 136 153 168 253 113 363 -14
28 -42 65 -62 83 -39 34 -138 84 -187 94 -16 4 -4 -5 28 -19z"/>
<path d="M7284 5121 c-119 -56 -174 -127 -174 -226 0 -79 31 -134 146 -256 52
-57 104 -120 115 -140 23 -47 26 -154 4 -205 -20 -48 -78 -114 -149 -169 -77
-59 -58 -58 35 3 82 54 137 110 169 171 25 50 27 138 3 189 -9 21 -72 93 -139
162 -77 78 -131 142 -143 170 -24 53 -27 120 -7 158 23 43 87 99 156 137 79
42 68 46 -16 6z"/>
<path d="M3238 5103 c-8 -33 -1 -90 11 -97 3 -2 5 17 3 42 -5 82 -7 89 -14 55z"/>
<path d="M3256 4975 c4 -8 8 -15 10 -15 2 0 4 7 4 15 0 8 -4 15 -10 15 -5 0
-7 -7 -4 -15z"/>
<path d="M3340 4873 c78 -84 148 -147 214 -192 54 -38 169 -157 190 -199 9
-18 20 -55 23 -83 11 -96 -74 -217 -225 -317 -29 -19 -50 -37 -48 -39 11 -11
169 83 224 133 78 70 112 137 112 218 0 115 -61 195 -235 310 -162 107 -261
182 -287 216 -12 17 -26 30 -31 30 -5 0 24 -35 63 -77z"/>
<path d="M3000 3919 c-742 -29 -1162 -122 -1286 -284 -27 -35 -58 -115 -70
-180 l-7 -39 -41 46 c-98 110 -254 203 -391 233 -116 26 -304 17 -410 -19
-295 -101 -489 -368 -489 -671 1 -319 214 -600 578 -764 110 -50 214 -79 419
-117 324 -60 384 -88 572 -264 175 -165 260 -215 390 -227 54 -5 169 8 208 23
7 2 71 -41 143 -97 358 -282 651 -427 798 -398 77 15 277 118 433 223 361 241
661 530 867 836 118 175 257 495 295 675 48 234 46 530 -6 654 -19 46 -73 124
-81 117 -3 -3 3 -15 12 -25 74 -82 77 -426 6 -712 -80 -325 -291 -684 -574
-977 -250 -259 -596 -524 -836 -641 -89 -43 -100 -46 -175 -46 -78 0 -84 2
-195 57 -216 108 -489 302 -726 516 -515 465 -775 1038 -714 1571 14 121 35
186 77 231 19 22 39 40 44 40 5 0 9 -16 9 -35 0 -61 55 -95 225 -140 157 -42
337 -65 740 -97 214 -16 949 -17 1120 0 372 37 526 59 672 97 155 41 243 96
243 153 0 100 -267 180 -774 232 -361 37 -670 45 -1076 29z m830 -89 c107 -6
256 -17 330 -25 510 -55 560 -64 608 -108 61 -56 -1 -113 -173 -158 -85 -23
-128 -23 -248 -4 -143 22 -416 44 -711 55 -289 11 -654 1 -936 -25 -85 -7
-189 -17 -230 -20 -41 -3 -102 -11 -134 -16 -106 -19 -176 -14 -282 20 -107
33 -164 63 -164 84 0 85 433 164 1100 200 144 8 666 6 840 -3z m-2630 -235
c112 -27 219 -87 324 -183 l94 -87 1 -122 c0 -68 -1 -123 -3 -123 -2 0 -21 30
-42 66 -59 101 -147 183 -246 232 -104 50 -170 66 -278 65 -104 -1 -166 -15
-249 -56 -181 -89 -279 -293 -226 -472 51 -176 177 -313 380 -412 117 -56 259
-97 475 -134 208 -37 324 -73 422 -132 90 -55 564 -497 545 -509 -7 -4 -45 -8
-84 -8 -128 0 -197 38 -371 204 -117 111 -188 159 -302 204 -70 28 -130 43
-422 106 -267 59 -445 150 -608 315 -98 98 -159 203 -186 317 -21 92 -15 257
12 335 65 185 232 339 423 390 85 22 253 24 341 4z m-27 -260 c133 -28 249
-114 318 -236 58 -103 85 -135 131 -157 l45 -20 30 -120 c35 -134 68 -221 138
-364 27 -54 46 -100 43 -103 -3 -3 -44 10 -92 29 -111 45 -190 67 -421 116
-104 22 -219 50 -255 62 -195 63 -360 189 -427 326 -24 50 -28 69 -28 147 0
84 2 94 33 147 87 150 275 218 485 173z"/>
<path d="M6540 3913 c-744 -32 -1113 -106 -1239 -249 -91 -103 -124 -348 -86
-641 27 -208 79 -378 176 -572 214 -430 541 -769 1074 -1113 214 -138 328
-190 420 -190 148 1 446 164 783 429 52 40 100 73 108 73 9 0 58 -5 110 -12
185 -22 295 23 454 186 93 96 166 154 246 194 71 36 116 48 369 101 105 21
227 51 270 66 375 129 610 346 696 643 96 333 -94 702 -431 835 -286 112 -669
20 -841 -202 l-33 -44 -17 54 c-23 79 -55 135 -101 180 -138 134 -511 218
-1143 259 -141 9 -639 11 -815 3z m905 -93 c415 -19 769 -71 847 -123 50 -34
50 -69 -1 -101 -98 -62 -270 -89 -416 -66 -200 31 -691 60 -1040 60 -302 0
-495 -10 -812 -40 -254 -25 -315 -25 -422 1 -243 58 -225 123 54 187 182 43
486 77 765 85 237 8 831 6 1025 -3z m-2077 -169 c-3 -39 20 -63 91 -95 131
-58 426 -107 891 -147 217 -19 888 -16 1125 4 283 25 378 36 505 57 274 47
405 109 386 185 -12 46 48 21 111 -47 57 -63 68 -115 67 -318 0 -131 -5 -189
-23 -280 -50 -248 -147 -488 -282 -695 -96 -148 -162 -226 -330 -390 -322
-314 -707 -586 -937 -660 -118 -39 -221 0 -517 198 -250 166 -421 308 -606
504 -279 296 -481 672 -560 1043 -31 145 -34 454 -5 542 15 47 67 128 82 128
2 0 3 -13 2 -29z m4012 -55 c81 -18 207 -88 275 -153 75 -73 96 -101 130 -173
9 -19 23 -48 31 -65 8 -16 16 -48 19 -70 2 -22 7 -61 10 -87 4 -26 1 -73 -5
-105 -16 -81 -50 -192 -61 -198 -4 -3 -6 -12 -3 -20 3 -7 -4 -18 -15 -25 -11
-6 -20 -14 -19 -18 7 -36 -119 -172 -231 -247 -79 -54 -147 -94 -159 -95 -4 0
-52 -18 -107 -39 -98 -39 -234 -74 -425 -111 -159 -30 -197 -43 -336 -119 -23
-12 -105 -81 -181 -154 -186 -176 -222 -194 -386 -189 l-58 2 218 218 c342
340 401 373 798 437 249 40 357 78 510 180 160 106 262 246 286 393 10 59 9
81 -5 145 -76 339 -515 455 -840 223 -66 -47 -124 -123 -180 -234 -15 -30 -29
-52 -32 -50 -11 11 15 227 31 257 82 160 246 269 455 304 58 10 220 6 280 -7z
m2 -283 c78 -37 145 -99 177 -166 21 -42 23 -59 19 -140 -3 -74 -9 -102 -30
-142 -55 -106 -153 -192 -305 -269 -110 -55 -220 -88 -403 -122 -177 -32 -303
-66 -384 -103 -36 -16 -66 -27 -66 -24 0 3 22 52 49 107 51 103 111 272 136
380 8 33 20 63 27 65 28 9 75 72 118 156 55 110 128 191 212 235 89 48 146 60
273 57 100 -2 116 -5 177 -34z"/>
</g>
</svg>
