<?xml version="1.0" standalone="no"?>
<!DOCTYPE svg PUBLIC "-//W3C//DTD SVG 20010904//EN"
 "http://www.w3.org/TR/2001/REC-SVG-20010904/DTD/svg10.dtd">
<svg version="1.0" xmlns="http://www.w3.org/2000/svg"
 width="580.000000pt" height="512.000000pt" viewBox="0 0 580.000000 512.000000"
 preserveAspectRatio="xMidYMid meet">

<g transform="translate(0.000000,512.000000) scale(0.100000,-0.100000)"
fill="#000000" stroke="none">
<path d="M1955 4649 c-563 -6 -631 -8 -740 -27 -66 -11 -219 -36 -340 -56
-257 -42 -290 -50 -321 -81 -51 -51 -27 -125 93 -288 75 -103 134 -209 163
-292 28 -83 27 -101 -10 -109 -59 -11 -73 -96 -45 -276 8 -52 18 -140 21 -195
7 -97 5 -105 -34 -240 -22 -77 -95 -356 -161 -620 -66 -264 -143 -563 -171
-665 -90 -329 -101 -478 -41 -603 56 -117 199 -238 366 -310 44 -18 112 -47
150 -64 58 -25 69 -33 67 -51 -5 -32 24 -79 68 -111 73 -52 387 -143 665 -192
222 -39 1190 -77 1535 -60 179 9 317 26 413 52 30 8 37 14 37 34 0 14 -3 25
-7 25 -5 0 -60 -11 -123 -25 -199 -43 -369 -50 -849 -37 -534 15 -767 28 -951
53 -299 41 -653 141 -730 206 -36 31 -52 63 -32 63 4 0 77 -22 162 -49 482
-152 584 -165 1285 -166 473 0 1125 23 1224 43 19 4 41 18 50 31 l16 24 -40
-7 c-73 -12 -256 -25 -600 -42 -437 -21 -1103 -16 -1295 10 -248 34 -481 94
-765 197 -335 122 -490 214 -574 340 -94 141 -92 264 9 634 32 116 106 404
165 640 106 426 193 764 201 777 2 3 19 2 37 -3 59 -17 422 -88 518 -101 178
-24 1625 -11 1964 18 94 8 262 25 375 39 363 44 565 64 572 57 8 -9 148 -355
194 -480 19 -51 57 -184 85 -295 27 -111 90 -348 139 -527 99 -366 105 -392
121 -545 31 -301 -23 -411 -262 -528 -110 -54 -163 -69 -390 -116 -49 -10
-101 -43 -88 -55 2 -2 38 2 79 9 89 16 130 18 130 6 0 -18 -79 -62 -133 -73
-53 -11 -57 -14 -57 -41 0 -27 2 -28 33 -22 50 11 143 55 165 79 11 11 22 34
24 50 3 27 9 31 82 52 93 27 253 106 329 164 116 87 142 165 134 400 -6 185
-22 269 -111 590 -36 129 -102 371 -146 538 -66 247 -97 343 -169 525 -48 122
-96 244 -106 270 l-18 48 24 25 c21 22 23 34 22 99 l-1 73 50 7 c86 12 465
-18 513 -41 59 -27 67 -56 81 -288 7 -116 20 -258 29 -316 8 -57 22 -176 30
-265 23 -237 43 -383 75 -545 52 -258 68 -290 139 -290 106 0 112 26 131 605
4 149 15 342 24 430 18 188 21 688 5 815 -5 47 -22 121 -37 165 -24 72 -31 83
-73 111 -25 17 -77 41 -115 53 -63 20 -77 21 -159 12 -49 -6 -198 -11 -330
-11 -132 0 -289 -5 -349 -10 -60 -6 -112 -7 -115 -3 -3 4 -4 136 -1 293 3 157
3 291 1 298 -5 17 -76 58 -126 71 -71 20 -601 59 -880 65 -148 4 -337 13 -420
21 -82 8 -175 14 -205 13 -30 -1 -334 -5 -675 -9z m975 -57 c47 -7 205 -12
351 -12 271 0 562 -21 762 -56 153 -26 187 -45 174 -95 -6 -23 -16 -27 -119
-47 -126 -25 -360 -45 -703 -62 -126 -6 -295 -17 -375 -25 -212 -22 -667 -29
-1050 -16 -345 11 -430 20 -696 71 -90 18 -250 38 -394 50 -134 12 -252 26
-263 31 -19 11 -19 11 -1 30 15 14 65 25 234 48 118 17 274 40 345 51 110 16
312 33 530 43 172 8 1131 -1 1205 -11z m-2045 -243 c97 -7 183 -20 245 -36
145 -38 153 -40 330 -65 158 -22 191 -23 770 -23 516 1 625 3 740 18 74 10
270 24 435 32 327 16 508 33 683 66 62 12 115 19 118 16 3 -3 3 -116 -1 -250
l-8 -244 -151 -21 c-192 -28 -610 -68 -848 -83 -280 -17 -2264 0 -2296 20 -6
3 -17 39 -26 78 -21 104 -84 226 -187 363 -50 67 -93 129 -96 138 -6 13 3 14
68 9 41 -4 141 -12 224 -18z m3022 -575 c-3 -3 -12 -4 -19 -1 -8 3 -5 6 6 6
11 1 17 -2 13 -5z m43 -274 c0 -5 -7 -10 -16 -10 -8 0 -12 5 -9 10 3 6 10 10
16 10 5 0 9 -4 9 -10z m-2973 -46 c-3 -3 -12 -4 -19 -1 -8 3 -5 6 6 6 11 1 17
-2 13 -5z m-82 -154 c3 -5 -1 -10 -9 -10 -9 0 -16 5 -16 10 0 6 4 10 9 10 6 0
13 -4 16 -10z m585 -59 c0 -10 -30 -24 -37 -17 -3 3 -2 9 2 15 8 13 35 15 35
2z m1990 -47 c0 -8 -5 -12 -10 -9 -6 4 -8 11 -5 16 9 14 15 11 15 -7z m-2140
-20 c0 -2 -7 -4 -15 -4 -8 0 -15 4 -15 10 0 5 7 7 15 4 8 -4 15 -8 15 -10z"/>
<path d="M2140 2539 c-629 -51 -1139 -109 -1283 -145 -211 -52 -215 -57 -288
-414 -22 -107 -55 -240 -74 -295 -48 -142 -59 -212 -46 -296 27 -169 75 -215
386 -368 121 -60 249 -118 285 -130 116 -37 510 -109 710 -130 468 -50 580
-55 860 -40 124 6 327 13 452 14 353 4 369 6 927 132 365 82 409 95 490 151
111 76 142 149 142 342 0 206 -52 500 -121 679 -71 183 -157 255 -382 319 -79
22 -197 56 -264 75 -66 20 -184 45 -261 56 -77 12 -175 29 -219 38 -66 13
-172 16 -644 18 -311 2 -612 -1 -670 -6z m469 -62 c32 -16 68 -64 55 -76 -5
-6 -25 -4 -49 6 -86 32 -135 36 -326 24 -102 -6 -237 -18 -300 -26 -289 -36
-426 -58 -457 -71 -51 -21 -62 -18 -62 16 0 40 9 43 228 79 156 27 438 55 647
65 102 5 236 -4 264 -17z m-1777 -173 c17 -9 80 -47 141 -85 69 -43 140 -78
187 -93 115 -37 618 -126 875 -156 137 -16 974 -25 1135 -12 143 12 418 56
610 98 63 14 166 36 229 50 118 26 141 26 141 -1 0 -20 -22 -29 -165 -64 -560
-138 -975 -178 -1594 -153 -163 7 -343 19 -401 26 -325 43 -655 102 -820 147
-114 31 -460 225 -445 250 10 14 73 11 107 -7z m3216 -16 c4 -20 -65 -73 -153
-116 -121 -61 -264 -82 -530 -81 -207 1 -230 5 -230 39 l0 23 235 1 c230 2
237 2 319 30 47 15 132 50 190 77 111 51 163 60 169 27z"/>
<path d="M3935 703 c-46 -10 -48 -13 -22 -33 20 -16 34 -19 70 -14 61 9 75 18
58 38 -13 15 -60 19 -106 9z"/>
<path d="M3983 583 c-7 -2 -13 -16 -13 -29 0 -20 5 -24 29 -24 24 0 29 5 33
30 4 25 1 30 -16 29 -12 0 -27 -3 -33 -6z"/>
<path d="M3865 565 c-5 -2 -36 -9 -67 -15 -50 -10 -58 -14 -58 -34 0 -12 2
-25 5 -28 7 -7 125 15 143 26 6 4 12 18 12 32 0 22 -10 28 -35 19z"/>
</g>
</svg>
