<?xml version="1.0" standalone="no"?>
<!DOCTYPE svg PUBLIC "-//W3C//DTD SVG 20010904//EN"
 "http://www.w3.org/TR/2001/REC-SVG-20010904/DTD/svg10.dtd">
<svg version="1.0" xmlns="http://www.w3.org/2000/svg"
 width="288.000000pt" height="284.000000pt" viewBox="0 0 288.000000 284.000000"
 preserveAspectRatio="xMidYMid meet">

<g transform="translate(0.000000,284.000000) scale(0.100000,-0.100000)"
fill="#000000" stroke="none">
<path d="M1439 2753 c-104 -53 -133 -171 -68 -275 46 -74 51 -155 15 -253 -14
-38 -24 -71 -22 -73 9 -8 92 100 117 153 43 90 41 152 -11 250 -54 102 -52
124 13 193 38 39 27 40 -44 5z"/>
<path d="M1159 2572 c-56 -37 -73 -56 -100 -117 -34 -77 -24 -158 34 -268 46
-86 68 -170 50 -188 -5 -5 -52 -16 -104 -24 -107 -16 -258 -62 -333 -103 -75
-40 -153 -121 -162 -167 -12 -64 3 -264 25 -342 12 -40 21 -78 21 -85 0 -7
-35 -32 -78 -56 -144 -80 -220 -162 -247 -270 -27 -103 7 -195 106 -297 33
-33 81 -85 108 -115 121 -135 394 -238 731 -276 161 -18 478 -15 583 6 l59 11
54 -51 c124 -117 331 -163 453 -100 76 39 60 93 -42 139 -34 16 -73 40 -86 54
-23 25 -23 27 -5 33 284 100 424 215 424 346 -1 79 -65 188 -123 207 -25 9
-36 20 -46 49 -8 20 -32 63 -54 94 l-40 58 55 52 c99 96 149 245 119 356 -18
65 -78 125 -147 147 -54 17 -148 17 -199 0 -18 -5 -22 0 -32 37 -32 119 -253
238 -504 273 -68 10 -76 18 -54 51 13 20 20 57 25 133 l6 105 39 33 c31 27 34
33 19 33 -11 0 -42 -14 -68 -30 -65 -42 -90 -99 -83 -189 2 -36 2 -77 -2 -91
l-7 -25 -159 4 c-88 1 -161 4 -163 5 -1 2 5 19 13 39 28 68 20 132 -30 229
-60 116 -71 166 -50 229 9 26 28 59 42 73 35 35 9 34 -48 -2z m345 -608 c9 -3
16 -15 16 -26 0 -19 1 -19 31 2 26 19 38 21 87 15 186 -23 399 -110 471 -191
71 -80 68 -142 -11 -217 -128 -125 -421 -201 -768 -201 -108 0 -148 -2 -115
-7 28 -4 122 -8 210 -8 160 -1 222 -10 237 -33 23 -37 -12 -202 -63 -299 -18
-34 -58 -83 -90 -114 -145 -134 -323 -125 -469 24 l-54 56 24 -44 c47 -82 162
-158 286 -187 205 -48 454 61 605 265 97 131 177 319 194 455 6 44 15 66 36
90 l28 31 1 -46 c0 -114 -84 -339 -182 -485 -114 -171 -245 -275 -416 -332
-100 -33 -270 -36 -372 -8 -81 23 -209 88 -264 134 -101 84 -234 267 -281 386
-29 74 -75 263 -75 309 l0 29 41 -35 c41 -36 133 -84 202 -106 56 -19 56 -7 0
14 -74 27 -156 80 -202 130 -36 39 -41 51 -41 90 0 25 6 58 14 73 46 88 200
167 413 211 153 32 158 30 127 -35 -9 -19 -15 -37 -12 -39 3 -3 28 20 57 50
l53 55 133 0 c73 0 140 -3 149 -6z m911 -333 c85 -38 133 -127 120 -226 -14
-112 -95 -221 -222 -298 -71 -43 -226 -97 -279 -97 -38 0 -36 1 38 34 144 63
260 162 322 277 39 71 45 113 21 159 -19 37 -43 50 -94 50 l-41 0 0 60 0 60
48 0 c26 0 65 -9 87 -19z m-36 -158 c40 -50 1 -145 -83 -202 -72 -50 -91 -54
-136 -31 l-39 20 24 62 c13 35 28 75 33 89 6 14 26 40 46 57 31 27 45 32 86
32 41 0 52 -4 69 -27z m-1759 -260 c0 -12 -24 -31 -73 -55 -98 -51 -145 -92
-173 -152 -82 -176 66 -349 395 -461 98 -33 112 -31 31 3 -157 67 -281 164
-316 247 -31 75 -11 170 49 233 44 47 117 96 126 86 4 -5 29 -42 55 -82 26
-40 70 -97 97 -127 28 -30 52 -66 55 -81 8 -42 30 -78 72 -116 89 -81 229
-119 444 -123 127 -2 141 -4 173 -26 19 -13 35 -27 35 -30 0 -10 -152 -23
-248 -21 -209 4 -481 77 -560 152 -38 36 -54 68 -62 122 l-8 53 -1 -48 c-1
-59 15 -92 70 -141 84 -77 253 -134 475 -162 119 -15 153 -16 257 -5 113 12
122 11 145 -6 58 -43 47 -48 -143 -63 -323 -27 -709 33 -930 143 -231 115
-343 274 -292 414 31 82 116 166 238 233 62 34 89 38 89 13z m1533 -8 c-3 -13
-53 -20 -53 -7 0 15 13 23 35 20 11 -2 19 -7 18 -13z m232 -142 c29 -32 65
-121 65 -161 0 -149 -150 -282 -447 -397 l-73 -28 -64 27 c-93 40 -98 50 -39
80 79 40 93 57 23 28 -42 -17 -83 -26 -116 -26 l-51 0 51 -28 c28 -16 98 -53
156 -82 329 -170 350 -184 350 -230 0 -27 1 -27 -107 -72 -41 -16 -45 -16 -85
2 -60 27 -183 121 -248 190 -86 92 -235 220 -283 242 -24 11 -60 24 -80 27
-21 4 -40 11 -43 16 -3 5 -3 9 -1 9 2 0 28 5 59 10 59 11 60 11 158 -39 46
-24 58 -26 75 -16 11 7 48 22 83 35 38 14 72 34 87 52 25 29 25 29 102 23 120
-11 262 22 347 80 46 31 48 12 6 -50 -48 -70 -149 -135 -360 -233 -24 -11 -24
-11 5 -5 111 23 336 142 406 216 56 59 76 176 41 246 -30 61 -76 68 -87 14
-21 -103 -75 -137 -240 -153 -87 -9 -119 -8 -149 2 -22 7 -41 18 -43 23 -1 6
19 34 46 63 43 45 54 52 88 52 53 0 166 33 254 74 41 19 77 35 81 35 4 1 19
-11 33 -26z m-1385 -314 c75 -50 138 -84 220 -117 l25 -11 -25 0 c-81 -2 -207
55 -277 125 -48 48 -72 87 -40 67 6 -4 50 -33 97 -64z"/>
<path d="M920 1895 c-179 -49 -271 -100 -303 -168 -45 -94 2 -169 148 -238
173 -83 378 -115 663 -106 302 10 557 84 653 190 33 36 41 63 30 102 -9 29 -9
28 -10 -12 -1 -61 -28 -73 -63 -29 -102 128 -551 212 -947 177 -175 -16 -193
-1 -92 77 51 38 39 40 -79 7z m641 -120 c149 -19 211 -32 284 -57 69 -24 192
-95 200 -115 3 -9 -7 -6 -26 8 -73 52 -163 86 -299 115 -94 20 -108 16 -21 -7
103 -26 191 -76 216 -122 25 -45 16 -62 -46 -94 -54 -26 -201 -47 -282 -40
-97 9 -126 60 -67 119 17 16 30 31 30 33 0 10 -71 16 -199 16 -117 0 -162 -4
-224 -21 -83 -22 -122 -41 -131 -66 -5 -12 -14 -14 -38 -9 -61 13 -128 47
-128 64 0 37 79 85 191 115 95 26 15 17 -171 -19 l-25 -5 27 15 c36 20 216 63
309 74 119 14 277 12 400 -4z"/>
<path d="M1588 1743 c6 -2 18 -2 25 0 6 3 1 5 -13 5 -14 0 -19 -2 -12 -5z"/>
<path d="M1040 1679 c-73 -21 -121 -43 -131 -61 -13 -23 7 -25 32 -2 10 9 55
29 101 45 77 26 76 39 -2 18z"/>
<path d="M1340 1684 c-122 -24 -106 -29 115 -34 184 -4 225 -8 253 -23 17 -10
32 -21 32 -25 0 -11 -48 -54 -85 -77 -39 -24 -19 -30 48 -15 103 25 167 73
146 111 -5 10 -39 28 -77 40 -56 18 -95 22 -237 25 -93 1 -181 0 -195 -2z"/>
<path d="M693 1318 c10 -72 40 -149 97 -243 28 -47 53 -85 55 -85 2 0 -18 46
-45 103 -27 56 -61 138 -75 182 -32 95 -40 106 -32 43z"/>
<path d="M820 1148 c0 -44 160 -292 177 -274 2 2 -21 36 -51 76 -30 40 -70
104 -90 142 -20 39 -36 64 -36 56z"/>
<path d="M2489 1506 c9 -36 18 -59 19 -50 6 24 -6 78 -21 99 -10 13 -10 1 2
-49z"/>
<path d="M1814 409 c243 -236 260 -247 316 -201 l34 29 -85 41 c-46 22 -124
72 -174 110 -49 39 -130 98 -180 133 l-90 63 179 -175z"/>
</g>
</svg>
