<svg
								xmlns="http://www.w3.org/2000/svg"
								width="673"
								height="1110"
								viewBox="0 0 673 1110"
								fill="none"
							>
								<path
									d="M661 9.79202C654.36 9.79202 642.538 10.6917 638.517 3.72193C634.831 -2.66701 644.092 3.52031 645.065 8.68837C648.058 24.5763 615.8 17.7383 607.412 17.7383C556.152 17.7383 504.892 17.7383 453.632 17.7383C397.17 17.7383 340.707 17.7383 284.245 17.7383C249.092 17.7383 201.526 11.0635 168.556 27.009C157.657 32.2797 154.757 48.4131 169.32 51.0687C180.863 53.1737 192.255 39.8036 179.47 31.8651C161.646 20.7978 134.788 39.2589 124.135 52.7241C107.167 74.1723 108.658 101.298 107 127"
									stroke="#FFFFFF"
									stroke-linecap="round"
								/>
								<path
									d="M0.601562 102.963C30.2983 115.337 61.3999 125.337 91.9104 135.276C127.48 146.864 165.035 160.733 202.423 166.113C252.566 173.328 305.417 172.004 355.866 172.391C400.588 172.734 444.797 171.62 488.813 163.343C505.262 160.25 521.576 157.401 538.114 154.849C551.328 152.81 563.492 150.595 576.89 152.633C591.146 154.803 615.025 156.648 623.052 171.098C631.4 186.124 633.14 207.236 623.606 221.877C610.419 242.129 588.551 252.767 564.703 254.006C532.594 255.674 500.283 253.735 468.132 255.021C430.486 256.527 393.262 260.838 355.589 260.838C325.953 260.838 296.317 260.838 266.68 260.838C244.812 260.838 223.072 261.487 201.315 259.176C170.402 255.891 139.582 251.032 108.436 250.867C88.8616 250.762 63.5849 243.461 52.1186 262.499C39.9001 282.787 42.936 299.103 58.1196 316.509C67.0264 326.719 79.5835 331.551 91.1718 338.113C103.488 345.087 115.882 349.621 129.025 354.639C140.207 358.909 151.076 358.851 162.723 360.825C177.917 363.4 193.663 367.97 208.516 372.181C226.681 377.33 242.469 380.229 253.201 396.739C264.332 413.864 264.325 433.332 243.507 442.44C221.046 452.266 199.891 450.918 175.926 453.611C150.125 456.51 147.862 464.101 121.892 462.893C112.6 462.461 118.581 458 123 458C133.949 458 133.788 467.365 127.062 474.618C112.481 490.343 71.8281 497.184 77.4154 520.823C82.7015 543.187 114.662 560.578 135.21 563.292C160.189 566.591 185.521 569.94 210.732 569.94C267.084 569.94 326.883 566.119 381.624 552.306C394.751 548.993 412.026 545.03 422.709 536.057C432.31 527.991 439.608 517.882 449.483 509.836C469.781 493.297 470.523 493.476 495.532 484.382C512.616 478.169 531.351 472.788 549.449 471.641C572.282 470.194 596.521 467.27 618.6 474.503C634.809 479.813 647.614 489.114 659.5 501C665.691 507.191 668.141 512.374 672.056 520.203"
									stroke="#FFFFFF"
									stroke-linecap="round"
								/>
								<path
									d="M607.771 611.797C599.26 622.435 588.407 632.027 577.712 640.382C574.316 643.036 564.225 648.505 565.409 644.361C566.379 640.966 576.531 648.5 575.797 652.907C573.733 665.29 523.024 664.516 515.031 664.516C492.555 664.516 469.992 665.067 447.546 663.779C392.247 660.606 337.494 653.907 282.001 653.907C266.314 653.907 202.602 657.152 173.037 661.652L110.5 683C117 745.173 165.352 754.222 188.936 757.524C204.633 759.721 220.652 758.997 236.455 758.997C247.142 758.997 258.136 759.717 268.798 758.776C310.196 755.123 351.443 747.778 392.865 743.673C436.506 739.348 482.176 732.621 526.141 737.042C537.286 738.163 548.182 740.834 559.367 741.684C570.129 742.501 581.023 742.814 591.71 744.41C611.026 747.295 621.637 766.741 622.358 784.93C622.988 800.806 618.296 808.281 609.392 821.472C604.073 829.353 596.871 833.789 590.237 840.186C578.021 851.965 565.712 848.857 551.042 852.858C544.436 854.659 501.194 857.712 494.5 858.5C484.086 861.103 446.21 861.588 435.522 862.14C422.336 862.822 407.735 864.53 404.137 880.559C402.836 886.351 399.039 902.368 405.316 906.492C412.51 911.22 421.476 914.103 429.481 917.027C444.773 922.615 460.103 928.188 475.748 932.72C490.542 937.006 505.451 941.046 520.836 942.445C542.341 944.4 564.004 943.356 585.522 945.539C607.816 947.802 645.304 954.74 656.838 977.808"
									stroke="#FFFFFF"
									stroke-linecap="round"
								/>
								<path
									d="M611.751 1021.57C604.733 1033.97 596.464 1046.87 581.176 1049.42C553.38 1054.05 523.993 1055.82 495.788 1056.05C471.455 1056.25 453.834 1056.05 429.5 1056.05C421.948 1056.05 430.627 1039.67 436.997 1051.5C439.693 1056.51 437.679 1063.2 436.997 1068.43C435.099 1082.98 435.532 1095.37 440.68 1109.1"
									stroke="#FFFFFF"
									stroke-linecap="round"
								/>
							</svg>