<?xml version="1.0" standalone="no"?>
<!DOCTYPE svg PUBLIC "-//W3C//DTD SVG 20010904//EN"
 "http://www.w3.org/TR/2001/REC-SVG-20010904/DTD/svg10.dtd">
<svg version="1.0" xmlns="http://www.w3.org/2000/svg"
 width="1127.000000pt" height="930.000000pt" viewBox="0 0 1127.000000 930.000000"
 preserveAspectRatio="xMidYMid meet">

<g transform="translate(0.000000,930.000000) scale(0.100000,-0.100000)"
fill="#000000" stroke="none">
<path d="M4315 8229 c-478 -5 -707 -11 -830 -22 -93 -9 -300 -21 -460 -27
-806 -29 -847 -32 -1097 -90 -73 -17 -214 -48 -313 -70 -348 -75 -503 -130
-576 -206 -31 -32 -34 -40 -33 -92 0 -31 -3 -356 -7 -720 -11 -882 8 -1314 91
-2067 11 -99 29 -292 40 -430 11 -137 23 -261 25 -275 3 -14 16 -178 30 -365
49 -669 89 -924 204 -1320 158 -547 328 -917 607 -1322 209 -304 374 -454 660
-600 112 -58 122 -67 189 -180 82 -139 204 -257 331 -321 66 -33 187 -61 364
-83 91 -12 173 -25 182 -30 23 -12 1791 -12 1803 0 6 5 93 14 195 20 265 17
424 53 585 134 88 44 135 78 239 175 59 56 119 101 167 126 180 95 345 233
451 378 126 172 286 463 368 668 73 183 167 479 215 675 25 105 51 203 57 219
l12 29 105 -8 c374 -26 642 -21 1003 20 477 53 783 125 989 231 279 144 482
425 592 819 53 187 130 646 158 940 24 248 0 622 -60 942 -56 294 -150 535
-263 673 -152 185 -359 295 -646 345 -281 49 -899 37 -1524 -31 -110 -12 -151
-13 -167 -5 -21 12 -21 12 -21 685 0 578 2 680 15 717 14 40 14 44 -2 60 -34
34 -389 205 -499 242 -213 70 -395 88 -1084 107 -257 7 -411 16 -519 30 -195
25 -483 40 -726 38 -104 -1 -487 -5 -850 -9z m1440 -113 c88 -9 189 -21 225
-27 36 -5 247 -14 470 -19 473 -11 630 -21 796 -55 207 -42 422 -127 542 -214
63 -47 57 -64 -36 -100 -90 -34 -432 -123 -477 -123 -16 0 -52 9 -80 20 -72
28 -332 97 -457 121 -120 23 -306 47 -443 56 -49 4 -182 15 -295 26 -218 20
-537 44 -735 54 -66 4 -215 2 -330 -5 -161 -9 -264 -9 -440 0 -502 25 -864 13
-1270 -45 -93 -13 -258 -33 -365 -45 -107 -12 -258 -32 -335 -45 -77 -13 -194
-28 -260 -35 -268 -25 -324 -31 -415 -46 -52 -9 -129 -25 -170 -37 -122 -33
-163 -33 -257 1 -128 47 -241 130 -226 168 14 36 175 93 408 144 77 17 196 44
265 60 281 68 299 70 610 80 405 13 737 29 845 40 266 27 423 33 975 40 840
10 1259 6 1455 -14z m-4512 -537 c62 -28 137 -62 167 -74 76 -32 302 -78 570
-115 353 -49 601 -90 650 -109 89 -34 298 -188 395 -292 124 -132 250 -313
310 -443 93 -199 113 -326 125 -761 7 -240 14 -352 29 -448 14 -89 18 -134 11
-147 -23 -42 -244 -194 -480 -330 -246 -141 -309 -190 -348 -271 -39 -81 -342
-982 -376 -1119 -40 -159 -62 -318 -52 -384 10 -62 60 -119 124 -140 78 -26
340 -64 657 -96 165 -16 365 -39 445 -50 180 -26 385 -36 422 -22 61 25 102
115 162 362 70 284 124 714 113 900 -10 167 -40 232 -237 500 -77 106 -152
249 -201 385 -18 50 -56 152 -86 227 -83 213 -83 218 -93 603 -8 346 -16 425
-60 595 -54 209 -175 429 -339 614 -75 86 -103 111 -250 228 -30 24 -56 48
-58 54 -7 20 43 22 200 8 676 -59 1278 -76 1867 -54 327 12 438 21 990 76 773
76 1067 121 1515 229 220 54 373 85 413 85 19 0 32 -6 36 -17 4 -9 6 -422 6
-918 -1 -549 3 -929 9 -975 36 -272 39 -974 6 -1470 -78 -1176 -117 -1484
-255 -2015 -120 -465 -267 -831 -453 -1131 -247 -397 -603 -597 -1167 -655
-173 -18 -1862 -18 -1990 0 -130 18 -646 124 -805 166 -234 61 -469 148 -615
228 -222 120 -312 210 -513 514 -326 491 -509 927 -661 1568 -70 295 -83 382
-111 750 -41 528 -66 807 -110 1185 -53 464 -91 970 -105 1395 -13 381 -18
1350 -7 1388 4 15 14 27 23 27 8 0 65 -23 127 -51z m8354 -1253 c205 -31 373
-90 500 -177 258 -177 386 -476 459 -1075 20 -168 23 -550 5 -734 -41 -425
-130 -837 -230 -1071 -117 -271 -310 -473 -541 -566 -210 -85 -625 -164 -1015
-193 -150 -11 -860 -12 -910 -1 -41 8 -42 24 -10 199 41 229 37 218 91 226 26
3 86 6 134 6 249 0 787 84 1100 172 413 116 588 266 666 573 39 155 50 446 36
965 -12 451 -20 520 -77 665 -76 192 -185 316 -348 395 -213 103 -338 116
-982 103 -253 -5 -468 -5 -477 -1 -16 8 -18 29 -18 238 0 128 4 231 9 234 12
8 494 44 741 55 277 13 740 6 867 -13z m-472 -611 c122 -18 205 -45 307 -97
187 -97 316 -320 347 -603 6 -49 11 -319 12 -600 2 -436 -1 -526 -15 -619 -48
-308 -184 -466 -486 -565 -271 -88 -931 -209 -1250 -227 -142 -9 -137 -18
-116 202 9 98 28 355 41 569 14 215 33 491 42 615 23 321 23 927 0 1108 -9 74
-17 156 -17 183 l0 49 518 0 c408 0 538 -3 617 -15z m-5566 -584 c6 -10 38
-92 71 -182 75 -203 150 -351 248 -494 208 -301 207 -299 206 -505 -1 -207
-45 -526 -105 -765 -46 -183 -77 -279 -99 -308 -32 -40 -92 -42 -335 -13 -115
14 -293 34 -395 45 -729 79 -772 88 -805 158 -14 29 -17 55 -12 137 7 143 49
295 238 861 118 356 167 490 189 519 40 53 119 110 264 192 220 124 453 290
492 349 19 30 30 31 43 6z m-386 -4707 c148 -41 507 -115 717 -149 113 -18
396 -39 410 -30 5 3 333 10 727 15 395 5 824 14 954 21 129 7 244 9 254 5 19
-7 19 -8 -5 -27 -58 -45 -314 -105 -565 -133 -452 -51 -744 -64 -1045 -47
-113 6 -340 16 -505 21 -420 13 -696 43 -842 91 -136 44 -356 233 -328 280 8
12 26 9 228 -47z"/>
<path d="M1422 6818 c-50 -121 -51 -609 -2 -996 32 -247 59 -337 91 -305 29
29 29 116 -1 343 -13 99 -47 546 -55 732 -4 80 -10 170 -14 200 -7 50 -8 52
-19 26z"/>
<path d="M1739 5963 c-10 -12 -14 -46 -13 -122 2 -222 128 -555 198 -528 25
10 19 49 -23 154 -50 127 -75 220 -101 372 -25 151 -30 162 -61 124z"/>
<path d="M7211 2950 c-6 -28 -11 -140 -11 -248 0 -227 -14 -434 -35 -543 -22
-108 -84 -306 -139 -442 -26 -64 -46 -125 -44 -134 2 -13 12 -18 33 -18 27 0
33 7 62 65 36 73 121 347 154 497 38 174 38 827 -1 866 -4 5 -13 -14 -19 -43z"/>
<path d="M6815 2023 c-22 -153 -59 -351 -87 -462 -19 -78 -29 -135 -24 -147 7
-18 9 -17 31 9 67 76 140 476 112 610 -11 51 -24 47 -32 -10z"/>
<path d="M2868 4183 c-28 -33 -38 -61 -103 -308 -91 -343 -136 -571 -122 -609
18 -46 213 -107 451 -141 342 -49 570 -52 606 -8 9 12 34 107 58 229 24 115
61 295 83 401 22 106 39 202 37 215 -5 33 -80 85 -156 108 -37 11 -155 38
-262 59 -354 72 -560 90 -592 54z m272 -73 c170 -33 471 -99 524 -114 29 -9
65 -25 79 -37 23 -17 27 -28 27 -72 0 -29 -13 -115 -29 -192 -16 -77 -41 -196
-55 -265 -54 -258 -62 -270 -182 -270 -137 0 -501 55 -674 101 -153 41 -153
48 -36 474 25 88 54 204 66 257 12 55 30 108 42 123 20 25 24 26 82 20 33 -4
104 -15 156 -25z"/>
</g>
</svg>
